# xmcd
#
# Track frame offsets:
#	150
#	19365
#	33080
#	48160
#	69998
#	86405
#	98640
#	114733
#	128560
#	144605
#
# Disc length: 2129 seconds
#
# Revision: 0
# Processed by: cddbd v1.5.1PL0 Copyright (c) Steve Scherf et al.
# Submitted via: audiograbber 1.83.01
#
DISCID=7a084f0a
DTITLE=Merle Haggard - Super Hits - Vol. 1
DYEAR=1993
DGENRE=Country
TTITLE0=Are The Good Times Really Over (I Wish A Buck Was Still Silver)
TTITLE1=That's The Way Love Goes
TTITLE2=A Friend In California
TTITLE3=Going Where The Lonely Go
TTITLE4=C.C. Waterback (With George Jones)
TTITLE5=Why Am I Drinkin'
TTITLE6=This Song Is For You
TTITLE7=I Had A Beautiful Time
TTITLE8=Someday When Things Are Good
TTITLE9=Kern River
EXTD=
EXTT0=I Wish A Buck Was Still Silver\n
EXTT1=
EXTT2=
EXTT3=
EXTT4=(With George Jones]\n
EXTT5=
EXTT6=
EXTT7=
EXTT8=
EXTT9=
PLAYORDER=
